<svg xmlns="http://www.w3.org/2000/svg" width="750" height="1050" viewBox="0 0 750 1050"><rect width="100%" height="100%" fill="#f6f0e5"/><ellipse cx="577.5" cy="294" rx="27.5" ry="60" fill="none" stroke="#172038" stroke-width="1" opacity="0.12" transform="rotate(-45 577.5 294)"/><ellipse cx="577.5" cy="294" rx="27.5" ry="60" fill="none" stroke="#9b7350" stroke-width="2" opacity="0.28" transform="rotate(-19.29 577.5 294)"/><ellipse cx="577.5" cy="294" rx="27.5" ry="60" fill="none" stroke="#172038" stroke-width="1" opacity="0.12" transform="rotate(6.43 577.5 294)"/><ellipse cx="577.5" cy="294" rx="27.5" ry="60" fill="none" stroke="#9b7350" stroke-width="2" opacity="0.28" transform="rotate(32.14 577.5 294)"/><ellipse cx="577.5" cy="294" rx="27.5" ry="60" fill="none" stroke="#172038" stroke-width="1" opacity="0.12" transform="rotate(57.86 577.5 294)"/><ellipse cx="577.5" cy="294" rx="27.5" ry="60" fill="none" stroke="#9b7350" stroke-width="2" opacity="0.28" transform="rotate(83.57 577.5 294)"/><ellipse cx="577.5" cy="294" rx="27.5" ry="60" fill="none" stroke="#172038" stroke-width="1" opacity="0.12" transform="rotate(109.29 577.5 294)"/><text x="75" y="220.5" text-anchor="start" font-family="Arial,sans-serif" font-size="15" letter-spacing="3" fill="#172038" opacity=".62">HAPPY BIRTHDAY</text><text x="75" y="567" text-anchor="start" font-family="Georgia,serif" font-size="45" fill="#172038">Bloom your way</text><text x="75" y="703.5" text-anchor="start" font-family="Arial,sans-serif" font-size="16" fill="#172038" opacity=".84">A year for curiosity, warmth and the things that feel most like you.</text><text x="75" y="850.5" text-anchor="start" font-family="Arial,sans-serif" font-size="14" letter-spacing="2" fill="#9b7350" opacity=".8">CARDELUME EXPERIMENT</text></svg>